# xmcd
#
# Track frame offsets:
#	225
#	16487
#	32451
#	46891
#	67206
#	89354
#	106215
#	124636
#	146455
#	161637
#	179529
#
# Disc length: 2781 seconds
#
# Revision: 1
# Processed by: cddbd v1.4PL0 Copyright (c) Steve Scherf et al.
# Submitted via: audiograbber 1.81.03
#
DISCID=910ada0b
DTITLE=Still At Large - Still At Large
DYEAR=2003
DGENRE=Blues
TTITLE0=Aardvark Blues Cafe
TTITLE1=Bits and Pieces
TTITLE2=I Can't Lose When I Choose The Blues
TTITLE3=Loved You Like a Fool
TTITLE4=You Never Can Tell
TTITLE5=Whoa Is Me
TTITLE6=Oh Well
TTITLE7=Question of the Blues
TTITLE8=Black Jack Ruby Jones
TTITLE9=Slide On In
TTITLE10=Tired of this Town
EXTD=
EXTT0=
EXTT1=
EXTT2=
EXTT3=
EXTT4=
EXTT5=
EXTT6=
EXTT7=
EXTT8=
EXTT9=
EXTT10=
PLAYORDER=
